<svg id="visual" viewBox="0 0 1300 450" width="1300" height="450" xmlns="http://www.w3.org/2000/svg" xmlns:xlink="http://www.w3.org/1999/xlink" version="1.1"><path d="M0 320L21.7 303.7C43.3 287.3 86.7 254.7 130 225.3C173.3 196 216.7 170 260 163.3C303.3 156.7 346.7 169.3 390 180C433.3 190.7 476.7 199.3 520 217.3C563.3 235.3 606.7 262.7 650 254.5C693.3 246.3 736.7 202.7 780 199C823.3 195.3 866.7 231.7 910 252.2C953.3 272.7 996.7 277.3 1040 263.5C1083.3 249.7 1126.7 217.3 1170 205.2C1213.3 193 1256.7 201 1278.3 205L1300 209L1300 0L1278.3 0C1256.7 0 1213.3 0 1170 0C1126.7 0 1083.3 0 1040 0C996.7 0 953.3 0 910 0C866.7 0 823.3 0 780 0C736.7 0 693.3 0 650 0C606.7 0 563.3 0 520 0C476.7 0 433.3 0 390 0C346.7 0 303.3 0 260 0C216.7 0 173.3 0 130 0C86.7 0 43.3 0 21.7 0L0 0Z" fill="#6600FF" stroke-linecap="round" stroke-linejoin="miter"></path></svg>